<?xml version="1.0" encoding="utf-8"?>
<!-- Generator: Adobe Illustrator 23.0.1, SVG Export Plug-In . SVG Version: 6.00 Build 0)  -->
<svg version="1.1" id="Layer_1" xmlns="http://www.w3.org/2000/svg" xmlns:xlink="http://www.w3.org/1999/xlink" x="0px" y="0px"
	 viewBox="0 0 296.15 47.35" style="enable-background:new 0 0 296.15 47.35;" xml:space="preserve">
<style type="text/css">
	.st0{fill:#FFFFFF;}
</style>
<path class="st0" d="M42.45,44.46c-0.93-0.07-1.78-0.43-2.47-1.03L40,43.42l-2.47-2.5l-0.35-0.36L20.61,23.87l2.24-2.26l22.17,22.4
	C44.2,44.36,43.3,44.52,42.45,44.46 M34.09,44.46c-0.93-0.07-1.78-0.43-2.47-1.03l0.02-0.02l-2.48-2.5l-0.35-0.36L16.43,28.09
	l2.03-2.05L36.4,44.11C35.65,44.39,34.85,44.52,34.09,44.46 M25.72,44.46c-0.93-0.07-1.77-0.43-2.46-1.03l0.02-0.02l-2.48-2.5
	l-0.35-0.36l-8.18-8.25l2.03-2.05l13.74,13.84C27.29,44.39,26.49,44.52,25.72,44.46 M33.07,3.34c0.81-0.35,1.71-0.51,2.57-0.45
	c0.93,0.07,1.77,0.43,2.46,1.03l-0.02,0.02l2.48,2.49l0.35,0.36l16.56,16.69l-2.24,2.26L33.07,3.34z M44,2.88
	c0.93,0.07,1.78,0.43,2.46,1.03l-0.02,0.02l2.48,2.49l0.35,0.36l12.37,12.47l-2.03,2.05L41.69,3.23C42.43,2.95,43.23,2.83,44,2.88
	 M52.37,2.88c0.93,0.07,1.77,0.43,2.46,1.03l-0.02,0.02l2.48,2.49l0.35,0.36l8.18,8.25l-2.03,2.05L50.06,3.23
	C50.8,2.95,51.6,2.83,52.37,2.88 M75.93,21.63L54.51,43.42l0.02,0.02c-0.35,0.3-0.74,0.55-1.17,0.73c-0.56,0.2-1.16,0.3-1.74,0.31
	c-0.58-0.01-1.17-0.12-1.74-0.31c-0.43-0.18-0.82-0.42-1.17-0.73l0.02-0.02L25,19.44l0.97-0.98l-0.02-0.02
	c0.35-0.3,1.54-1.52,2.9-1.49c0.66-0.03,1.22,0.17,1.66,0.44L30.5,17.4l14.16,14.34l0.07-0.07c0.92,0.93,2.3,1.89,4.4,1.89
	c1.99,0,4.24-1.45,5.15-2.52L69.91,15.4L56.98,1.78c-0.91-1.07-2.41-1.7-4.48-1.77c-1.48-0.05-3.4,0.21-4.73,1.02
	c-0.9-0.61-2.11-0.96-3.64-1.02c-1.48-0.05-3.4,0.21-4.73,1.02c-0.9-0.61-2.11-0.96-3.63-1.02c-1.55-0.06-3.58,0.23-4.92,1.14
	c-0.91-0.68-2.18-1.08-3.8-1.14C26.86,0,26.66,0,26.47,0c-0.2,0-0.39,0-0.58,0c-2.08,0.07-3.57,0.7-4.48,1.77L0,23.55l2.15,2.17
	L23.57,3.93l-0.02-0.02c0.36-0.31,0.75-0.55,1.17-0.73c0.56-0.19,1.15-0.3,1.74-0.31c0.58,0.01,1.17,0.12,1.74,0.31
	c0.43,0.18,0.82,0.42,1.17,0.73l-0.02,0.02l23.73,23.98l-0.97,0.97l0.02,0.02c-0.36,0.3-1.54,1.53-2.9,1.49
	c-1.59,0.07-2.57-1.19-2.92-1.49l0.02-0.02l-12.4-12.57c-0.91-1.07-2.39-2.52-4.97-2.52c-1.99,0-4.24,1.45-5.15,2.52L8.17,31.96
	L21.1,45.57c0.91,1.07,2.41,1.7,4.48,1.77c1.48,0.05,3.4-0.21,4.73-1.02c0.9,0.61,2.11,0.96,3.63,1.02c1.48,0.05,3.4-0.21,4.73-1.02
	c0.9,0.61,2.1,0.96,3.64,1.02c1.55,0.05,3.58-0.23,4.92-1.14c0.91,0.68,2.18,1.08,3.8,1.14c0.19,0.01,0.38,0.01,0.58,0
	c0.2,0,0.39,0,0.58,0c2.08-0.08,3.57-0.71,4.48-1.77l21.4-21.77L75.93,21.63z"/>
<path class="st0" d="M149.57,37.24c0,1.12,0.26,1.98,0.78,2.55c0.52,0.58,1.18,0.87,1.97,0.87c0.8,0,1.45-0.29,1.97-0.86
	c0.51-0.58,0.77-1.44,0.77-2.59c0-1.13-0.25-1.98-0.75-2.54s-1.16-0.84-1.99-0.84s-1.49,0.29-2,0.85
	C149.83,35.24,149.57,36.1,149.57,37.24 M147.51,37.31c0-1.01,0.15-1.86,0.45-2.54c0.22-0.5,0.53-0.96,0.93-1.36
	c0.39-0.4,0.82-0.7,1.28-0.89c0.62-0.26,1.33-0.39,2.14-0.39c1.46,0,2.63,0.46,3.51,1.36c0.88,0.91,1.32,2.17,1.32,3.79
	c0,1.6-0.44,2.85-1.31,3.76s-2.04,1.36-3.49,1.36c-1.48,0-2.65-0.45-3.52-1.35C147.95,40.12,147.51,38.88,147.51,37.31"/>
<polygon class="st0" points="158.71,42.21 158.71,32.28 165.51,32.28 165.51,33.96 160.72,33.96 160.72,36.31 164.86,36.31 
	164.86,37.99 160.72,37.99 160.72,42.21 "/>
<path class="st0" d="M175.76,38.28l-1.37-3.68l-1.34,3.68H175.76z M179.45,42.21h-2.18l-0.87-2.25h-3.97l-0.82,2.25h-2.13l3.86-9.92
	h2.12L179.45,42.21z"/>
<polygon class="st0" points="180.57,42.21 180.57,32.36 182.58,32.36 182.58,40.53 187.56,40.53 187.56,42.21 "/>
<path class="st0" d="M194.24,38.28l-1.37-3.68l-1.34,3.68H194.24z M197.93,42.21h-2.18l-0.87-2.25h-3.97l-0.82,2.25h-2.12l3.86-9.92
	h2.12L197.93,42.21z"/>
<polygon class="st0" points="198.97,42.21 198.97,32.28 201.97,32.28 203.77,39.05 205.55,32.28 208.56,32.28 208.56,42.21 
	206.69,42.21 206.69,34.39 204.72,42.21 202.79,42.21 200.83,34.39 200.83,42.21 "/>
<polygon class="st0" points="210.55,42.21 210.55,32.28 217.9,32.28 217.9,33.96 212.55,33.96 212.55,36.16 217.53,36.16 
	217.53,37.83 212.55,37.83 212.55,40.53 218.09,40.53 218.09,42.21 "/>
<path class="st0" d="M221.79,33.96v6.58h1.5c0.56,0,0.96-0.03,1.21-0.1c0.33-0.08,0.6-0.21,0.81-0.41c0.21-0.19,0.39-0.51,0.52-0.96
	c0.14-0.45,0.2-1.05,0.2-1.82c0-0.76-0.07-1.36-0.2-1.77c-0.14-0.41-0.33-0.73-0.57-0.96c-0.25-0.23-0.55-0.38-0.93-0.47
	c-0.28-0.06-0.83-0.1-1.64-0.1L221.79,33.96L221.79,33.96z M219.78,32.28h3.66c0.83,0,1.45,0.06,1.89,0.19
	c0.58,0.17,1.08,0.48,1.5,0.92c0.41,0.44,0.73,0.97,0.95,1.6c0.21,0.63,0.32,1.42,0.32,2.35c0,0.82-0.1,1.52-0.3,2.11
	c-0.25,0.72-0.6,1.31-1.06,1.75c-0.35,0.34-0.82,0.6-1.41,0.79c-0.44,0.14-1.03,0.21-1.77,0.21h-3.77L219.78,32.28L219.78,32.28z"/>
<path class="st0" d="M235.06,38.28l-1.37-3.68l-1.34,3.68H235.06z M238.75,42.21h-2.18l-0.87-2.25h-3.96l-0.82,2.25h-2.13l3.86-9.92
	h2.12L238.75,42.21z"/>
<path class="st0" d="M99.54,23.07c0.01,1.41-0.84,1.82-2.01,1.82h-3.14l-0.12-0.03c-0.06-0.07-0.06-0.14-0.06-0.14v-9.09
	c0,0,0-0.15,0.05-0.19c0.06-0.04,0.18-0.04,0.18-0.04h3.1c0.67,0,1.34,0.54,1.34,1.21v0.81c0.01,0.38-0.58,1.38-1.37,1.33
	l-1.41,0.01c-0.24,0-0.44,0.19-0.44,0.43v1.52c0,0.24,0.19,0.44,0.44,0.44h1.58c1.48,0.09,1.85,0.93,1.87,1.3L99.54,23.07
	L99.54,23.07z M99.97,19.78h-0.08v-0.02h-0.02c-0.09,0-0.16-0.07-0.16-0.16s0.07-0.17,0.16-0.17h0.4c1.34-0.14,2.38-1.28,2.38-2.66
	v-0.98c0-1.49-1.2-2.69-2.69-2.69l-10.79-0.02c-0.07,0-0.13,0.06-0.13,0.14c0,0-0.01,1.7,0,1.7c0,0-0.01,0.09,0.05,0.15
	c0.04,0.03,0.17,0.04,0.17,0.04c0.5,0.05,1.29,0.46,1.29,0.79v8.43c-0.01,0.37-0.73,0.71-1.32,0.8c0,0-0.09,0.03-0.15,0.1
	c-0.07,0.06-0.04,0.18-0.04,0.18c-0.01,0,0,1.64,0,1.64c0,0.07,0.06,0.13,0.13,0.13h1.37c0.04,0,0.09,0,0.13,0h9.29
	c1.91,0,3.24-1.86,3.24-3.34v-1.39C103.21,20.98,102.37,19.78,99.97,19.78"/>
<path class="st0" d="M292.48,23.07c0.01,1.41-0.85,1.82-2.01,1.82h-3.14l-0.12-0.03c-0.07-0.07-0.07-0.14-0.07-0.14v-9.09
	c0,0,0-0.15,0.06-0.19c0.05-0.04,0.17-0.04,0.17-0.04h3.1c0.67,0,1.34,0.54,1.34,1.21v0.81c0.01,0.38-0.58,1.38-1.37,1.33
	l-1.42,0.01c-0.24,0-0.43,0.19-0.43,0.43v1.52c0,0.24,0.2,0.44,0.43,0.44h1.58c1.48,0.09,1.86,0.93,1.87,1.3v0.62H292.48z
	 M292.92,19.78h-0.08v-0.02h-0.02c-0.09,0-0.16-0.07-0.16-0.16s0.07-0.17,0.16-0.17h0.4c1.34-0.14,2.39-1.28,2.39-2.66v-0.98
	c0-1.49-1.21-2.69-2.69-2.69l-10.79-0.02c-0.08,0-0.13,0.06-0.13,0.14c0,0-0.01,1.7,0,1.7c0,0-0.01,0.09,0.05,0.15
	c0.04,0.03,0.17,0.04,0.17,0.04c0.5,0.05,1.29,0.46,1.29,0.79v8.43c-0.01,0.37-0.72,0.71-1.32,0.8c0,0-0.08,0.03-0.15,0.1
	c-0.07,0.06-0.04,0.18-0.04,0.18c-0.01,0,0,1.64,0,1.64c0,0.07,0.05,0.13,0.13,0.13h1.37c0.04,0,0.08,0,0.12,0h9.29
	c1.91,0,3.24-1.86,3.24-3.34v-1.39C296.15,20.98,295.31,19.78,292.92,19.78"/>
<path class="st0" d="M132.06,13.08h-4.32c-0.38-0.01-0.42,0.02-0.44,0.43v1.02c0.01,0.22,0.39,0.13,0.39,0.13s0.23,0.01,0.36,0.22
	c0.03,0.04,0.07,0.16,0.07,0.16s0.01,0.31-0.17,0.64c-0.2,0.37-1.1,1.85-1.48,2.45c-0.05,0.18-0.29,0.32-0.49,0.32h-0.04
	c-0.2,0-0.32-0.15-0.41-0.3l-1.62-2.35c0,0-0.26-0.52-0.03-0.94c0.09-0.17,0.42-0.24,0.51-0.24c0.18,0,0.28-0.02,0.28-0.35v-0.85
	c0-0.15-0.05-0.34-0.29-0.34h-5.47c-0.24,0-0.43,0.02-0.43,0.26v1.11c0.02,0.41-0.05,0.48,0.24,0.5c0.5,0.03,1,0.5,1,0.5l3.85,5.5
	v3.71c0.01,0.19-0.44,0.31-0.75,0.37l-0.36,0.07c-0.07,0-0.12,0.04-0.13,0.11c0,0,0,0,0,0.01v0.02v1.84v0.02l0,0
	c0.01,0.06,0.06,0.11,0.13,0.11h6.02c0.07,0,0.12-0.04,0.13-0.11h0.01v-0.02v-1.84v-0.02c0-0.01,0-0.01-0.01-0.01
	c-0.01-0.06-0.06-0.11-0.13-0.11h-0.15c-0.47-0.07-1.1-0.36-1.13-0.59v-3.22l3.15-4.87c0,0,0.55-0.74,0.73-0.94
	c0.2-0.23,0.41-0.34,0.59-0.4l0.48-0.07c0.36,0.02,0.35-0.12,0.35-0.36v-1.13C132.5,13.12,132.39,13.08,132.06,13.08"/>
<path class="st0" d="M266.31,24.94v-2.93c0-0.24-0.19-0.43-0.43-0.43h-1.12c-0.24,0-0.44,0.19-0.44,0.43v0.56
	c-0.02,0.26-0.07,0.54-0.18,0.75c-0.29,0.58-1.01,1.09-1.3,1.19c-0.71,0.27-1.63,0.18-1.63,0.18l0,0h-1.49
	c-0.17-0.11-0.28-0.24-0.28-0.37V15.9c0-0.33,0.77-0.67,1.36-0.76c0,0,0.1,0,0.14-0.06s0.03-0.14,0.03-0.14l-0.01-1.7
	c0-0.07-0.06-0.13-0.13-0.13h-5.82c-0.07,0-0.13,0.06-0.13,0.13l-0.01,1.7c0.01,0-0.01,0.08,0.03,0.14s0.14,0.06,0.14,0.06
	c0.59,0.1,1.36,0.44,1.36,0.76v8.42c0,0.33-0.77,0.68-1.36,0.77c0,0-0.09,0-0.14,0.05c-0.04,0.05-0.02,0.14-0.03,0.14l0.01,1.7
	c0,0.07,0.06,0.13,0.13,0.13h4.66h0.01h6.26c0.24,0,0.43-0.19,0.43-0.43v-1.56C266.35,25.06,266.34,25,266.31,24.94"/>
<path class="st0" d="M221.99,24.94v-2.93c0-0.24-0.2-0.43-0.44-0.43h-1.12c-0.24,0-0.44,0.19-0.44,0.43v0.56
	c-0.02,0.26-0.08,0.54-0.18,0.75c-0.29,0.58-1.01,1.09-1.3,1.19c-0.71,0.27-1.63,0.18-1.63,0.18l0,0h-1.49
	c-0.17-0.11-0.28-0.24-0.28-0.37v-8.4c0-0.33,0.77-0.67,1.36-0.76c0,0,0.1,0,0.14-0.06s0.03-0.14,0.03-0.14l-0.02-1.71
	c0-0.07-0.06-0.13-0.13-0.13h-5.82c-0.07,0-0.13,0.05-0.13,0.13l-0.01,1.71c0,0-0.01,0.08,0.03,0.14s0.14,0.06,0.14,0.06
	c0.59,0.09,1.36,0.43,1.36,0.76v8.4c0,0.33-0.77,0.68-1.36,0.77c0,0-0.1,0-0.14,0.05s-0.03,0.14-0.03,0.14l0.01,1.7
	c0,0.07,0.06,0.13,0.13,0.13h4.65h0.01h6.26c0.24,0,0.44-0.19,0.44-0.43v-1.56C222.03,25.06,222.01,25,221.99,24.94"/>
<path class="st0" d="M273.47,24.87c-0.39,0-1.19-0.02-1.44-0.06c-0.42-0.07-0.92-0.29-1.17-0.72c-0.21-0.35-0.1-1.51-0.13-1.9v-6.27
	c0-0.33,0.77-0.67,1.36-0.76c0,0,0.1,0,0.14-0.06s0.02-0.14,0.03-0.14l-0.01-1.7c0-0.07-0.06-0.13-0.13-0.13h-6.38
	c-0.07,0-0.13,0.06-0.13,0.13l-0.01,1.7c0,0-0.01,0.08,0.03,0.14s0.14,0.06,0.14,0.06c0.59,0.09,1.36,0.43,1.36,0.76v5.95
	l-0.01,0.01v1.23c0,0-0.02,1.79,0.3,2.29c0.79,1.25,2.01,1.96,5.63,1.96h0.7c3.62,0,5-0.71,5.79-1.96c0.32-0.5,0.3-2.29,0.3-2.29
	v-1.23l-0.01-0.01v-5.95c0-0.33,0.77-0.67,1.36-0.76c0,0,0.1,0,0.14-0.06s0.03-0.14,0.03-0.14l-0.02-1.7c0-0.07-0.05-0.13-0.13-0.13
	h-6.38c-0.07,0-0.13,0.06-0.13,0.13l-0.01,1.7c0,0-0.01,0.08,0.02,0.14c0.04,0.06,0.14,0.06,0.14,0.06
	c0.59,0.09,1.36,0.43,1.36,0.76v6.27c-0.02,0.39,0.07,1.55-0.12,1.9c-0.25,0.43-0.76,0.65-1.17,0.72
	C274.65,24.84,273.85,24.86,273.47,24.87"/>
<path class="st0" d="M253.96,23.21c0-0.24-0.19-0.44-0.44-0.44h-1.13c-0.24,0-0.43,0.2-0.43,0.44v0.15
	c-0.02,0.62-0.79,1.35-1.19,1.51c-0.72,0.29-0.98,0.29-1.99,0.33h-0.04h-0.01c-1.02-0.04-1.27-0.04-2-0.33
	c-0.4-0.16-1.21-0.99-1.45-1.64c-0.18-0.51-0.41-1.14-0.41-3.24c0-2.09,0.15-3.06,0.41-3.47c0.46-0.73,1.19-1.49,2.91-1.49
	c1.71,0,2.33,0.63,2.63,1.03c0,0,0.46,0.38,0.49,0.91v0.15c0,0.24,0.2,0.44,0.43,0.44h1.13c0.24,0,0.43-0.2,0.43-0.44l0.03-3.37
	c0,0,0.07-0.24-0.23-0.48c0,0-1.63-0.49-4.35-0.46c-2.25,0.02-4.1,0.49-5.05,1.09s-2.74,2.34-2.74,5.9c0,3.55,0.79,4.86,1.74,5.76
	c0.78,0.74,1.95,1.51,4.32,1.8c0.07,0.06,0.71,0.1,1.21,0.1c0.16,0.01,0.32,0.02,0.5,0.02c0.49,0.01,0.92-0.01,1.3-0.05
	c2.85-0.11,3.52-0.41,3.52-0.41c0.24,0,0.44-0.19,0.44-0.43L253.96,23.21z"/>
<path class="st0" d="M186.14,23.17l0.04-0.07l-0.04-3.37c0-0.24-0.19-0.44-0.44-0.44h-5.07c-0.24,0-0.43,0.19-0.43,0.44v0.15v1.16
	v0.15c0,0.24,0.19,0.44,0.43,0.44h1.96v3.08c-0.1,0.07-0.19,0.13-0.28,0.16c-0.72,0.29-0.97,0.29-1.99,0.32h-0.04h-0.01
	c-1.01-0.03-1.27-0.03-1.99-0.32c-0.41-0.17-1.21-0.99-1.46-1.64c-0.18-0.5-0.41-1.14-0.41-3.23s0.15-3.06,0.41-3.48
	c0.46-0.74,1.19-1.49,2.9-1.49s2.34,0.62,2.64,1.03c0,0,0.46,0.38,0.49,0.91v0.15c0,0.24,0.19,0.44,0.43,0.44h1.12
	c0.24,0,0.44-0.19,0.44-0.44l0.04-3.37c0,0,0.06-0.24-0.24-0.49c0,0-1.63-0.49-4.34-0.46c-2.25,0.03-4.1,0.49-5.05,1.09
	s-2.75,2.34-2.75,5.9c0,3.55,0.79,4.86,1.74,5.75c0.79,0.74,1.96,1.51,4.33,1.81c0.07,0.06,0.7,0.1,1.21,0.1
	c0.16,0.01,0.32,0.01,0.5,0.02c0.49,0.01,0.93,0,1.3-0.05c2.86-0.11,4.15-0.41,4.15-0.41c0.25,0,0.44-0.2,0.44-0.44l-0.04-3.36
	C186.15,23.19,186.15,23.18,186.14,23.17"/>
<path class="st0" d="M114.75,23.24c-0.24,0.65-1.05,1.47-1.45,1.64c-0.71,0.28-0.97,0.29-1.94,0.32c-0.97-0.03-1.23-0.04-1.94-0.32
	c-0.41-0.17-1.21-0.99-1.45-1.64c-0.18-0.51-0.41-1.14-0.41-3.23s0.14-3.06,0.41-3.48c0.46-0.74,1.19-1.49,2.9-1.49h0.98
	c1.99-0.01,2.45,0.76,2.91,1.49c0.26,0.41,0.41,1.39,0.41,3.48C115.16,22.1,114.93,22.73,114.75,23.24 M116.33,13.89
	c-0.91-0.57-2.65-1.02-4.78-1.08V12.8h-0.38v0.01c-2.13,0.06-3.87,0.51-4.78,1.08c-0.95,0.6-2.74,2.34-2.74,5.9
	c0,3.55,0.79,4.86,1.74,5.75c0.79,0.74,1.96,1.51,4.33,1.81c0.07,0.06,0.71,0.1,1.21,0.1c0.08,0.01,0.63,0.01,0.63,0.01
	c0.08,0,1.38-0.06,1.46-0.12c2.38-0.29,3.54-1.07,4.33-1.81c0.95-0.89,1.74-2.2,1.74-5.75C119.07,16.23,117.28,14.49,116.33,13.89"
	/>
<path class="st0" d="M193.71,25.14c-0.04-0.06-0.13-0.06-0.13-0.06c-0.59-0.1-1.36-0.43-1.36-0.76V21.3v-2.23v-3.13
	c0-0.33,0.77-0.67,1.36-0.77c0,0,0.09,0,0.13-0.05c0.05-0.06,0.03-0.14,0.03-0.14l-0.01-1.71c0-0.07-0.06-0.13-0.13-0.13h-5.82
	c-0.07,0-0.13,0.06-0.13,0.13l-0.01,1.71c0,0-0.02,0.08,0.02,0.14c0.05,0.05,0.14,0.05,0.14,0.05c0.59,0.1,1.36,0.43,1.36,0.77v3.13
	v2.23v3.02c0,0.34-0.76,0.67-1.36,0.76c0,0-0.09,0-0.14,0.06c-0.04,0.06-0.02,0.14-0.02,0.14l0.01,1.71c0,0.07,0.06,0.13,0.13,0.13
	h5.82c0.07,0,0.13-0.06,0.13-0.13l0.01-1.71C193.73,25.28,193.75,25.21,193.71,25.14"/>
<path class="st0" d="M209.89,25.14c-0.04-0.06-0.13-0.06-0.13-0.06c-0.59-0.1-1.36-0.43-1.36-0.76V22.4c0-1.48-0.41-2.68-2.8-2.68
	h-0.08V19.7h-0.02c-0.09,0-0.16-0.08-0.16-0.16c0-0.09,0.08-0.17,0.16-0.17h0.4c1.34-0.15,2.39-1.4,2.39-2.78v-0.78
	c0-1.48-1.21-2.69-2.69-2.69h-5.83v0.01h-4.94c-0.07,0-0.13,0.06-0.13,0.13l-0.01,1.71c0.01,0-0.01,0.08,0.03,0.14
	c0.04,0.05,0.13,0.05,0.13,0.05c0.59,0.1,1.36,0.43,1.36,0.77v3.13v2.23v3.02c0,0.34-0.77,0.67-1.36,0.76c0,0-0.09,0-0.13,0.06
	c-0.04,0.06-0.02,0.14-0.03,0.14l0.01,1.71c0,0.07,0.06,0.13,0.13,0.13h5.82c0.07,0,0.13-0.06,0.13-0.13l0.01-1.71
	c0,0,0.02-0.07-0.02-0.14c-0.04-0.06-0.14-0.06-0.14-0.06c-0.59-0.1-1.36-0.43-1.36-0.76V21.3v-2.23v-3.13
	c0-0.18,0.22-0.36,0.52-0.5h3.35c0.67,0,1.34,0.54,1.34,1.2v0.61c0.02,0.38-0.58,1.5-1.37,1.45l-0.05,0.02h-2.02
	c-0.24,0-0.44,0.19-0.44,0.43v1.52c0,0.24,0.2,0.44,0.44,0.44h2.23c1.48,0.09,1.42,0.93,1.43,1.3l-0.03,3.94
	c0,0,0.01,0.29,0.05,0.45c0.1,0.29,0.62,0.33,0.62,0.33h4.41c0.08,0,0.13-0.06,0.13-0.13l0.02-1.71
	C209.91,25.28,209.93,25.21,209.89,25.14"/>
<path class="st0" d="M135.02,20.38c1.14,0.35,3.1,0.92,4.46,1.14s1.95,0.87,1.74,2.06c-0.21,1.18-1.57,1.41-2.29,1.43
	c0,0-1.74,0.08-2.45-0.18c-0.29-0.11-1.1-1.03-1.24-1.29l-0.29-0.69c0-0.11-0.15-0.23-0.39-0.23h-1.24c-0.24,0-0.32-0.01-0.32,0.23
	l0.01,2.72v1.2c0,0.37,0.56,0.46,2.12,0.46h4.14c0,0,1.77,0.06,3.08-0.71c1.07-0.62,2.01-2.33,1.95-3.58
	c-0.09-2.01-0.22-3.09-1.36-3.8c-1.01-0.63-3.1-0.92-4.45-1.14c-1.36-0.22-2.5-0.43-2.5-1.62c0-1.2,1.57-1.42,2.29-1.43
	c0,0,0.92-0.08,1.63,0.18c0.29,0.1,0.57,0.2,0.98,0.7c0.2,0.24,0.51,1.04,0.51,1.04c0,0.24,0.19,0.43,0.43,0.43h1.12
	c0.35,0.04,0.44-0.05,0.44-0.43l-0.01-3.62c0-0.25-1.41-0.24-2.12-0.24h-4.58c0,0-1.57,0.01-2.53,0.92c-0.7,0.67-1.41,1.95-1.36,3.2
	C132.84,18.37,133.06,19.79,135.02,20.38"/>
<path class="st0" d="M224.87,20.38c1.14,0.35,3.1,0.92,4.46,1.14s1.96,0.87,1.74,2.06c-0.22,1.18-1.58,1.41-2.29,1.43
	c0,0-1.74,0.08-2.44-0.18c-0.29-0.11-1.1-1.03-1.24-1.29l-0.29-0.69c0-0.11-0.15-0.23-0.39-0.23h-1.25c-0.24,0-0.31-0.01-0.31,0.23
	v2.72v1.2c0,0.37,0.56,0.46,2.12,0.46h4.15c0,0,1.76,0.06,3.08-0.71c1.07-0.62,2.01-2.33,1.96-3.58c-0.08-2.01-0.21-3.09-1.36-3.8
	c-1.01-0.63-3.09-0.92-4.45-1.14s-2.5-0.43-2.5-1.62c0-1.2,1.57-1.42,2.29-1.43c0,0,0.92-0.08,1.63,0.18c0.29,0.1,0.56,0.2,0.97,0.7
	c0.2,0.24,0.52,1.04,0.52,1.04c0,0.24,0.19,0.43,0.43,0.43h1.12c0.35,0.04,0.44-0.05,0.44-0.43l-0.01-3.62
	c0-0.25-1.41-0.24-2.12-0.24h-4.58c0,0-1.58,0.01-2.53,0.92c-0.7,0.67-1.41,1.95-1.36,3.2C222.7,18.37,222.92,19.79,224.87,20.38"/>
<path class="st0" d="M157.51,25.33c-3.1-0.05-3.58-1.13-3.58-2.86c0-0.77,0.37-1.5,1.01-2.08l5.47,4.41
	C159.84,25.15,158.66,25.34,157.51,25.33 M156.8,14.78c1.3,0.06,2.01,0.66,2.01,1.31c0,0.76-1.74,1.47-2.17,1.47
	c-0.07,0-0.16-0.02-0.28-0.05c-0.18-0.11-0.41-0.19-0.6-0.24c-0.55-0.27-1.12-0.72-1.12-1.17C154.64,15.44,155.5,14.73,156.8,14.78
	 M167.5,26.05c-0.11-0.17-0.27-0.11-0.6-0.17c-0.32-0.05-0.54-0.22-0.54-0.22l-1.7-1.2c0.23-0.43,0.42-0.88,0.56-1.2
	c0.22-0.49,0.33-2.07,0.33-2.61s0.12-1.49-0.07-1.66c-0.05-0.04-0.27-0.08-0.27-0.08h-2.32c0,0-0.14,0.03-0.21,0.11
	c-0.07,0.07-0.06,0.38-0.06,0.38s-0.03,0.76,0,1.14c0.05,0.71-0.13,1.36-0.37,1.9l-3.43-2.85c1.89-0.71,3.12-2.31,3.1-3.5
	c-0.05-2.33-2.14-3.27-5.11-3.31c-3.31-0.05-5.54,1.23-5.54,3.31c0,0.6,0.16,1.14,0.45,1.62c-0.01,0.02-0.01,0.04-0.01,0.06
	l0.12,0.1c0.22,0.31,0.49,0.59,0.81,0.84c-1.47,1.02-2.37,2.48-2.37,4.01c0,2.88,1.33,4.89,6.92,5.05c2.01,0.06,3.92-0.43,5.36-1.27
	l0.56,0.25c0.23,0.19,0.42,0.42,0.88,0.43l3.19-0.01c0.24,0,0.37-0.07,0.37-0.31v-0.18C167.54,26.69,167.58,26.16,167.5,26.05"/>
</svg>
