<?xml version="1.0" encoding="utf-8"?>
<!-- Generator: Adobe Illustrator 23.0.1, SVG Export Plug-In . SVG Version: 6.00 Build 0)  -->
<svg version="1.1" id="Layer_1" xmlns="http://www.w3.org/2000/svg" xmlns:xlink="http://www.w3.org/1999/xlink" x="0px" y="0px"
	 viewBox="0 0 532.84 119.95" style="enable-background:new 0 0 532.84 119.95;" xml:space="preserve">
<style type="text/css">
	.st0{fill:#0093D0;}
</style>
<g>
	<path d="M212.06,72.49c0-1.68,0.25-3.08,0.75-4.22c0.37-0.84,0.89-1.59,1.53-2.26c0.65-0.67,1.36-1.16,2.13-1.48
		c1.03-0.43,2.21-0.65,3.55-0.65c2.43,0,4.37,0.75,5.82,2.26c1.46,1.5,2.18,3.6,2.18,6.28c0,2.66-0.72,4.74-2.17,6.24
		s-3.38,2.25-5.79,2.25c-2.45,0-4.4-0.75-5.84-2.24C212.79,77.17,212.06,75.11,212.06,72.49z M215.49,72.38
		c0,1.86,0.43,3.28,1.29,4.24s1.95,1.44,3.28,1.44s2.41-0.48,3.26-1.43c0.85-0.96,1.27-2.39,1.27-4.3c0-1.89-0.41-3.29-1.24-4.22
		c-0.83-0.93-1.93-1.39-3.3-1.39s-2.47,0.47-3.31,1.41S215.49,70.49,215.49,72.38z"/>
	<path d="M230.65,80.62V64.16h11.29v2.79h-7.96v3.9h6.87v2.79h-6.87v7H230.65z"/>
	<path d="M265.06,80.62h-3.62l-1.44-3.74h-6.58l-1.36,3.74h-3.53l6.41-16.46h3.52L265.06,80.62z M258.94,74.11L256.67,68l-2.22,6.11
		H258.94z"/>
	<path d="M266.91,80.62V64.29h3.32v13.56h8.27v2.77H266.91z"/>
	<path d="M295.72,80.62h-3.62l-1.44-3.74h-6.58l-1.36,3.74h-3.53l6.41-16.46h3.51L295.72,80.62z M289.6,74.11L287.33,68l-2.22,6.11
		H289.6z"/>
	<path d="M297.44,80.62V64.16h4.98l2.99,11.23l2.95-11.23h4.99v16.46h-3.09V67.66l-3.27,12.96h-3.2l-3.26-12.96v12.96H297.44z"/>
	<path d="M316.64,80.62V64.16h12.21v2.79h-8.88v3.65h8.27v2.77h-8.27v4.48h9.2v2.77H316.64z"/>
	<path d="M331.97,64.16h6.08c1.37,0,2.42,0.1,3.13,0.31c0.96,0.28,1.79,0.79,2.48,1.52c0.69,0.73,1.21,1.62,1.57,2.67
		s0.54,2.35,0.54,3.89c0,1.35-0.17,2.52-0.5,3.5c-0.41,1.2-1,2.17-1.76,2.91c-0.58,0.56-1.36,1-2.34,1.31
		c-0.73,0.23-1.71,0.35-2.94,0.35h-6.25V64.16z M335.3,66.95v10.91h2.48c0.93,0,1.6-0.05,2.01-0.16c0.54-0.13,0.99-0.36,1.34-0.68
		s0.65-0.85,0.87-1.59s0.34-1.74,0.34-3.02s-0.11-2.25-0.34-2.93c-0.22-0.68-0.54-1.21-0.94-1.59c-0.4-0.38-0.92-0.64-1.54-0.78
		c-0.46-0.1-1.37-0.16-2.73-0.16H335.3z"/>
	<path d="M363.44,80.62h-3.62l-1.44-3.74h-6.58l-1.36,3.74h-3.53l6.41-16.46h3.52L363.44,80.62z M357.32,74.11L355.05,68l-2.22,6.11
		H357.32z"/>
</g>
<path class="st0" d="M192.37,54.8l-54.26,55.19l0.05,0.05c-0.9,0.77-1.9,1.38-2.98,1.83c-1.42,0.5-2.93,0.77-4.4,0.8
	c-1.47-0.03-2.97-0.29-4.4-0.8c-1.08-0.44-2.08-1.05-2.97-1.83l0.05-0.05L63.34,49.24l2.45-2.47l-0.05-0.05
	c0.9-0.77,3.9-3.86,7.35-3.78c1.68-0.07,3.08,0.44,4.21,1.11l-0.03,0.03l35.89,36.31l0.17-0.18c2.35,2.36,5.82,4.78,11.14,4.78
	c5.04,0,10.74-3.67,13.05-6.37l39.61-39.63L144.36,4.51c-2.3-2.71-6.09-4.3-11.36-4.49c-3.74-0.14-8.6,0.52-11.98,2.59
	c-2.27-1.54-5.34-2.45-9.21-2.59c-3.75-0.14-8.6,0.52-11.99,2.59c-2.27-1.54-5.34-2.45-9.21-2.59c-3.92-0.14-9.07,0.58-12.46,2.89
	c-2.31-1.73-5.52-2.74-9.64-2.89C68.04,0,67.55,0,67.04,0.01c-0.5-0.01-0.99,0-1.47,0.01c-5.26,0.19-9.05,1.78-11.36,4.49L0,59.65
	l5.45,5.49L59.72,9.95L59.67,9.9c0.9-0.77,1.9-1.38,2.98-1.82c1.43-0.5,2.93-0.78,4.4-0.8c1.48,0.03,2.98,0.3,4.4,0.8
	c1.08,0.44,2.08,1.05,2.97,1.82l-0.05,0.05l60.11,60.75l-2.46,2.47l0.05,0.05c-0.9,0.77-3.89,3.86-7.34,3.78
	c-4.04,0.17-6.51-3.01-7.41-3.78l0.05-0.05L85.94,41.33c-2.3-2.7-6.04-6.37-12.6-6.37c-5.05,0-10.74,3.67-13.05,6.37l-39.6,39.63
	l32.77,34.48c2.3,2.71,6.09,4.3,11.35,4.49c3.74,0.14,8.6-0.51,11.98-2.58c2.27,1.54,5.34,2.44,9.21,2.58
	c3.75,0.14,8.6-0.51,11.99-2.58c2.27,1.54,5.34,2.44,9.21,2.58c3.92,0.15,9.07-0.58,12.46-2.89c2.31,1.73,5.52,2.75,9.64,2.89
	c0.47,0.02,0.96,0.02,1.46,0.02c0.51,0.01,1,0,1.47-0.02c5.26-0.19,9.05-1.78,11.35-4.49l54.22-55.15L192.37,54.8z M132.66,7.3
	c2.35,0.17,4.49,1.1,6.24,2.6l-0.05,0.05l6.28,6.33l0.89,0.9l20.73,20.89l-5.14,5.19L126.82,8.19
	C128.69,7.48,130.72,7.17,132.66,7.3z M111.47,7.3c2.35,0.17,4.49,1.1,6.24,2.6l-0.05,0.05l6.28,6.33l0.89,0.9l31.34,31.59
	l-5.14,5.2L105.62,8.19C107.5,7.48,109.53,7.17,111.47,7.3z M83.77,8.46c2.06-0.9,4.33-1.3,6.5-1.15c2.35,0.17,4.49,1.1,6.25,2.6
	l-0.05,0.05l6.28,6.33l0.89,0.9l41.95,42.29l-5.67,5.73L83.77,8.46z M65.16,112.64c-2.35-0.17-4.49-1.1-6.24-2.6l0.05-0.05
	l-6.28-6.33l-0.89-0.9L31.06,81.87l5.14-5.2l34.81,35.09C69.13,112.47,67.1,112.78,65.16,112.64z M86.35,112.64
	c-2.35-0.17-4.49-1.1-6.24-2.6l0.05-0.05l-6.28-6.33l-0.89-0.9L41.64,71.17l5.14-5.19l45.42,45.79
	C90.32,112.47,88.29,112.78,86.35,112.64z M107.55,112.64c-2.35-0.17-4.49-1.1-6.25-2.6l0.05-0.05l-6.28-6.33l-0.89-0.9L52.22,60.47
	l5.67-5.73l56.16,56.76C111.99,112.39,109.71,112.8,107.55,112.64z"/>
<path d="M229.1,45.87h-0.12v-0.04h-0.03c-0.14,0-0.25-0.11-0.25-0.25c0-0.14,0.11-0.25,0.25-0.25h0.62
	c2.08-0.23,3.69-1.99,3.69-4.13v-1.51c0-2.3-1.87-4.16-4.16-4.16l-16.71-0.01c-0.11,0-0.2,0.09-0.2,0.2c0,0-0.01,2.63,0,2.63
	c0,0-0.02,0.15,0.08,0.23c0.06,0.05,0.25,0.06,0.25,0.06c0.78,0.09,2,0.72,2,1.23v13.06c-0.02,0.57-1.13,1.09-2.04,1.24
	c0,0-0.14,0.05-0.23,0.15c-0.1,0.1-0.06,0.29-0.06,0.29c-0.01,0,0,2.54,0,2.54c0,0.11,0.09,0.2,0.2,0.2h2.13c0.06,0,0.13,0,0.19,0
	h14.38c2.95,0,5.01-2.87,5.01-5.17v-2.16C234.11,47.74,232.8,45.87,229.1,45.87z M228.42,50.97c0.02,2.18-1.3,2.81-3.11,2.81h-4.86
	l-0.19-0.04c-0.11-0.1-0.11-0.21-0.11-0.21V39.47c0,0,0-0.24,0.09-0.29c0.08-0.07,0.27-0.07,0.27-0.07h4.8
	c1.03,0,2.08,0.84,2.08,1.87v1.25c0.02,0.59-0.9,2.14-2.12,2.07l-2.19,0.02c-0.37,0-0.67,0.3-0.67,0.67v2.35
	c0,0.37,0.3,0.67,0.67,0.67h2.44c2.3,0.14,2.87,1.45,2.89,2.01V50.97z"/>
<path d="M527.83,45.87h-0.12v-0.04h-0.03c-0.14,0-0.25-0.11-0.25-0.25c0-0.14,0.11-0.25,0.25-0.25h0.62
	c2.08-0.23,3.69-1.99,3.69-4.13v-1.51c0-2.3-1.86-4.16-4.16-4.16l-16.71-0.01c-0.11,0-0.21,0.09-0.21,0.2c0,0,0,2.63,0,2.63
	c0,0-0.01,0.15,0.09,0.23c0.06,0.05,0.26,0.06,0.26,0.06c0.78,0.09,2,0.72,2,1.23v13.06c-0.02,0.57-1.13,1.09-2.04,1.24
	c0,0-0.14,0.05-0.23,0.15c-0.11,0.1-0.07,0.29-0.07,0.29c0,0,0,2.54,0,2.54c0,0.11,0.09,0.2,0.21,0.2h2.13c0.07,0,0.13,0,0.2,0
	h14.39c2.95,0,5.01-2.87,5.01-5.17v-2.16C532.84,47.74,531.54,45.87,527.83,45.87z M527.16,50.97c0.02,2.18-1.3,2.81-3.1,2.81h-4.86
	L519,53.75c-0.11-0.1-0.11-0.21-0.11-0.21V39.47c0,0,0-0.24,0.08-0.29c0.09-0.07,0.27-0.07,0.27-0.07h4.8
	c1.03,0,2.07,0.84,2.07,1.87v1.25c0.02,0.59-0.9,2.14-2.12,2.07l-2.19,0.02c-0.37,0-0.67,0.3-0.67,0.67v2.35
	c0,0.37,0.3,0.67,0.67,0.67h2.45c2.29,0.14,2.87,1.45,2.89,2.01V50.97z"/>
<path d="M278.77,35.5h-6.67c-0.59,0-0.66,0.03-0.67,0.67v1.58c0.01,0.34,0.61,0.2,0.61,0.2s0.36,0.02,0.54,0.34
	c0.04,0.07,0.1,0.25,0.1,0.25s0.01,0.48-0.27,0.98c-0.31,0.57-1.7,2.87-2.29,3.79c-0.08,0.29-0.45,0.5-0.77,0.5h-0.05
	c-0.3,0-0.5-0.23-0.64-0.48l-2.51-3.64c0,0-0.41-0.8-0.04-1.46c0.15-0.25,0.66-0.37,0.79-0.37c0.28,0,0.43-0.03,0.43-0.53
	c0-0.15,0-1.31,0-1.31c0-0.22-0.08-0.53-0.45-0.53h-8.47c-0.37,0-0.67,0.05-0.67,0.42v1.71c0.03,0.63-0.08,0.75,0.38,0.77
	c0.77,0.04,1.54,0.77,1.54,0.77l5.96,8.51v5.75c0.02,0.29-0.68,0.47-1.16,0.56l-0.55,0.11c-0.1,0-0.18,0.07-0.19,0.17
	c0,0-0.01,0-0.01,0v0.03v2.86v0.03h0c0.02,0.09,0.1,0.17,0.2,0.17h9.32c0.1,0,0.18-0.08,0.19-0.17h0v-0.03v-2.86v-0.03
	c0,0,0,0-0.01,0c-0.01-0.1-0.09-0.17-0.19-0.17h-0.24c-0.73-0.11-1.69-0.55-1.73-0.92v-4.98l4.87-7.55c0,0,0.86-1.16,1.13-1.46
	c0.3-0.35,0.63-0.53,0.91-0.62l0.74-0.11c0.56,0.04,0.55-0.19,0.55-0.56v-1.74C279.45,35.57,279.28,35.5,278.77,35.5z"/>
<path d="M486.63,53.86v-4.53c0-0.37-0.3-0.67-0.67-0.67h-1.74c-0.37,0-0.67,0.3-0.67,0.67v0.87c-0.03,0.39-0.12,0.83-0.28,1.15
	c-0.45,0.9-1.57,1.68-2.02,1.85c-1.1,0.42-2.52,0.28-2.52,0.28l0,0.01h-2.31c-0.26-0.18-0.43-0.37-0.43-0.57V39.88
	c0-0.51,1.19-1.04,2.1-1.18c0,0,0.15,0.01,0.21-0.09c0.06-0.09,0.04-0.21,0.04-0.21l-0.02-2.64c0-0.11-0.09-0.2-0.2-0.2h-9.01
	c-0.11,0-0.2,0.09-0.2,0.2l-0.02,2.64c0.01,0-0.02,0.12,0.04,0.21c0.06,0.09,0.21,0.09,0.21,0.09c0.91,0.15,2.1,0.67,2.1,1.18v13.04
	c0,0.51-1.19,1.03-2.1,1.18c0,0-0.14,0-0.21,0.08c-0.06,0.09-0.04,0.21-0.04,0.21l0.02,2.64c0,0.11,0.09,0.2,0.2,0.2h7.21
	c0,0,0.01,0,0.01,0h9.7c0.37,0,0.67-0.3,0.67-0.68v-2.41C486.7,54.06,486.67,53.95,486.63,53.86z"/>
<path d="M418,53.86v-4.53c0-0.37-0.3-0.67-0.67-0.67h-1.74c-0.37,0-0.67,0.3-0.67,0.67v0.87c-0.03,0.39-0.12,0.83-0.28,1.15
	c-0.45,0.9-1.57,1.68-2.02,1.85c-1.1,0.42-2.52,0.28-2.52,0.28l0,0.01h-2.31c-0.26-0.18-0.43-0.37-0.43-0.57v-13
	c0-0.51,1.19-1.04,2.1-1.18c0,0,0.15,0.01,0.21-0.09c0.06-0.09,0.04-0.21,0.04-0.21l-0.02-2.64c0-0.11-0.09-0.2-0.2-0.2h-9.01
	c-0.11,0-0.2,0.09-0.2,0.2l-0.02,2.64c0.01,0-0.02,0.12,0.04,0.21c0.06,0.09,0.21,0.09,0.21,0.09c0.92,0.15,2.11,0.67,2.11,1.18v13
	c0,0.51-1.19,1.03-2.11,1.18c0,0-0.14,0-0.21,0.08c-0.06,0.09-0.03,0.21-0.04,0.21l0.02,2.64c0,0.11,0.09,0.2,0.2,0.2h7.21
	c0.01,0,0.01,0,0.01,0h9.7c0.37,0,0.67-0.3,0.67-0.68v-2.41C418.07,54.06,418.04,53.95,418,53.86z"/>
<path d="M497.71,53.75c-0.6-0.01-1.85-0.04-2.23-0.1c-0.64-0.11-1.42-0.45-1.82-1.12c-0.31-0.54-0.15-2.33-0.19-2.94v-9.71
	c0-0.51,1.19-1.04,2.1-1.18c0,0,0.15,0.01,0.21-0.09c0.06-0.09,0.03-0.21,0.04-0.21l-0.02-2.64c0-0.11-0.09-0.2-0.2-0.2h-9.87
	c-0.11,0-0.2,0.09-0.2,0.2l-0.02,2.64c0.01,0-0.02,0.12,0.04,0.21c0.06,0.09,0.21,0.09,0.21,0.09c0.91,0.15,2.1,0.67,2.1,1.18v9.22
	l-0.01,0.01v1.9c0,0-0.03,2.78,0.46,3.55c1.23,1.94,3.1,3.04,8.71,3.04c0.04,0,1.05,0,1.09,0c5.6,0,7.75-1.1,8.98-3.04
	c0.49-0.77,0.46-3.55,0.46-3.55v-1.9l-0.01-0.01v-9.22c0-0.51,1.19-1.04,2.1-1.18c0,0,0.15,0.01,0.21-0.09
	c0.06-0.09,0.03-0.21,0.04-0.21l-0.02-2.64c0-0.11-0.09-0.2-0.2-0.2h-9.87c-0.11,0-0.2,0.09-0.2,0.2l-0.02,2.64
	c0.01,0-0.02,0.12,0.04,0.21c0.06,0.09,0.21,0.09,0.21,0.09c0.91,0.15,2.1,0.67,2.1,1.18v9.71c-0.04,0.61,0.12,2.4-0.19,2.94
	c-0.39,0.67-1.17,1.01-1.81,1.12C499.55,53.71,498.31,53.74,497.71,53.75"/>
<path d="M467.51,51.19c0-0.38-0.3-0.68-0.67-0.68h-1.74c-0.37,0-0.67,0.3-0.67,0.68v0.23c-0.04,0.97-1.22,2.1-1.85,2.35
	c-1.12,0.45-1.51,0.45-3.08,0.5c-0.02,0-0.04,0-0.07,0l-0.01,0c-1.57-0.05-1.96-0.05-3.08-0.5c-0.63-0.25-1.87-1.52-2.25-2.54
	c-0.27-0.77-0.63-1.76-0.63-5c0-3.24,0.22-4.74,0.63-5.38c0.71-1.13,1.85-2.31,4.5-2.31c2.65,0,3.62,0.97,4.08,1.6
	c0,0,0.72,0.59,0.76,1.41v0.23c0,0.37,0.3,0.67,0.67,0.67h1.74c0.37,0,0.68-0.3,0.68-0.67l0.05-5.21c0,0,0.1-0.38-0.37-0.76
	c0,0-2.52-0.76-6.73-0.72c-3.49,0.03-6.35,0.76-7.82,1.68c-1.47,0.92-4.25,3.61-4.25,9.12c0,5.51,1.22,7.53,2.69,8.92
	c1.21,1.14,3.02,2.34,6.7,2.8c0.12,0.09,1.1,0.16,1.88,0.16c0.25,0.01,0.5,0.02,0.76,0.03c0.77,0.02,1.43-0.01,2.02-0.08
	c4.42-0.16,5.45-0.63,5.45-0.63c0.37,0,0.67-0.3,0.67-0.68L467.51,51.19z"/>
<path d="M362.51,51.12l0.06-0.11l-0.05-5.21c0-0.37-0.3-0.67-0.67-0.67h-7.85c-0.37,0-0.67,0.3-0.67,0.67v0.23v1.81v0.23
	c0,0.38,0.3,0.68,0.67,0.68h3.03v4.78c-0.15,0.11-0.3,0.2-0.42,0.24c-1.12,0.45-1.52,0.45-3.09,0.5c-0.03,0-0.05,0-0.07,0l0,0
	c-1.57-0.05-1.96-0.05-3.09-0.5c-0.62-0.25-1.87-1.52-2.25-2.54c-0.27-0.77-0.63-1.76-0.63-5c0-3.24,0.23-4.74,0.63-5.38
	c0.71-1.13,1.85-2.31,4.5-2.31c2.65,0,3.62,0.97,4.08,1.6c0,0,0.72,0.59,0.76,1.41v0.23c0,0.37,0.3,0.67,0.67,0.67h1.74
	c0.37,0,0.68-0.3,0.68-0.67l0.05-5.21c0,0,0.1-0.38-0.37-0.76c0,0-2.52-0.76-6.72-0.72c-3.49,0.03-6.35,0.76-7.82,1.68
	c-1.48,0.92-4.25,3.61-4.25,9.12c0,5.51,1.22,7.53,2.69,8.92c1.21,1.14,3.03,2.34,6.7,2.8c0.12,0.09,1.09,0.16,1.87,0.16
	c0.25,0.01,0.5,0.02,0.76,0.03c0.77,0.02,1.44-0.01,2.02-0.08c4.42-0.16,6.44-0.63,6.44-0.63c0.37,0,0.67-0.3,0.67-0.68l-0.05-5.21
	C362.52,51.16,362.51,51.14,362.51,51.12z"/>
<path d="M254.43,36.76c-1.42-0.89-4.11-1.58-7.4-1.67v-0.01c-0.06,0-0.53,0-0.59,0v0.01c-3.3,0.09-5.99,0.79-7.4,1.67
	c-1.47,0.92-4.25,3.61-4.25,9.12c0,5.51,1.22,7.53,2.69,8.92c1.21,1.14,3.03,2.34,6.7,2.8c0.12,0.09,1.09,0.16,1.87,0.16
	c0.13,0,0.98,0.01,0.98,0.01c0.13,0,2.14-0.08,2.26-0.17c3.67-0.46,5.49-1.66,6.7-2.8c1.47-1.39,2.69-3.41,2.69-8.92
	C258.67,40.37,255.89,37.68,254.43,36.76z M251.98,51.22c-0.37,1.01-1.62,2.29-2.25,2.54c-1.1,0.44-1.5,0.45-3.01,0.5
	c-1.5-0.05-1.91-0.06-3-0.5c-0.63-0.25-1.87-1.52-2.25-2.54c-0.27-0.77-0.63-1.76-0.63-5c0-3.24,0.23-4.74,0.63-5.38
	c0.71-1.13,1.85-2.31,4.5-2.31c0.16,0,1.35,0,1.51,0c3.07-0.01,3.78,1.18,4.5,2.31c0.41,0.64,0.63,2.14,0.63,5.38
	C252.61,49.46,252.26,50.45,251.98,51.22z"/>
<path d="M374.22,54.18c-0.06-0.09-0.21-0.08-0.21-0.08c-0.91-0.15-2.1-0.67-2.1-1.19v-4.68v-3.45v-4.85c0-0.51,1.19-1.03,2.1-1.19
	c0,0,0.15,0.01,0.21-0.08c0.06-0.09,0.03-0.21,0.04-0.21l-0.02-2.64c0-0.11-0.09-0.2-0.2-0.2h-9.01c-0.11,0-0.2,0.09-0.2,0.2
	l-0.02,2.64c0,0-0.02,0.12,0.04,0.21c0.06,0.09,0.21,0.08,0.21,0.08c0.92,0.15,2.1,0.68,2.1,1.19v4.85v3.45v4.68
	c0,0.52-1.19,1.04-2.1,1.19c0,0-0.15,0-0.21,0.08c-0.06,0.09-0.04,0.21-0.04,0.21l0.02,2.65c0,0.11,0.09,0.2,0.2,0.2h9.01
	c0.11,0,0.2-0.09,0.2-0.2l0.02-2.65C374.26,54.39,374.28,54.27,374.22,54.18z"/>
<path d="M399.28,54.18c-0.06-0.09-0.21-0.08-0.21-0.08c-0.91-0.15-2.1-0.67-2.1-1.19l-0.01-2.96c0-2.3-0.63-4.16-4.33-4.16h-0.12
	v-0.04h-0.03c-0.14,0-0.25-0.11-0.25-0.25c0-0.14,0.11-0.25,0.25-0.25h0.62c2.08-0.23,3.69-2.16,3.69-4.3v-1.22
	c0-2.29-1.86-4.15-4.16-4.15l-9.02,0v0.02h-7.63c-0.11,0-0.2,0.09-0.2,0.2l-0.02,2.64c0,0-0.02,0.12,0.04,0.21
	c0.06,0.09,0.21,0.08,0.21,0.08c0.91,0.15,2.1,0.68,2.1,1.19v4.85v3.45v4.68c0,0.52-1.19,1.04-2.1,1.19c0,0-0.15,0-0.21,0.08
	c-0.06,0.09-0.04,0.21-0.04,0.21l0.02,2.65c0,0.11,0.09,0.2,0.2,0.2h9.01c0.11,0,0.2-0.09,0.2-0.2l0.02-2.65
	c-0.01,0,0.02-0.12-0.04-0.21c-0.06-0.09-0.21-0.08-0.21-0.08c-0.91-0.15-2.1-0.67-2.1-1.19v-4.68v-3.45v-4.85
	c0-0.28,0.35-0.56,0.81-0.78h5.19c1.04,0,2.08,0.84,2.08,1.87v0.95c0.02,0.59-0.9,2.31-2.12,2.24l-0.08,0.02h-3.11
	c-0.38,0-0.67,0.3-0.67,0.67v2.36c0,0.37,0.3,0.67,0.67,0.67h3.45c2.3,0.14,2.2,1.44,2.22,2.01l-0.05,6.09c0,0,0,0.45,0.08,0.7
	c0.14,0.45,0.95,0.5,0.95,0.5h6.84c0.11,0,0.2-0.09,0.2-0.2l0.02-2.65C399.32,54.39,399.34,54.27,399.28,54.18z"/>
<path d="M283.35,46.81c1.76,0.54,4.79,1.43,6.89,1.77c2.1,0.33,3.03,1.35,2.69,3.19c-0.33,1.82-2.44,2.19-3.54,2.21
	c0,0-2.69,0.13-3.78-0.28c-0.45-0.17-1.71-1.59-1.93-1.99l-0.45-1.07c0-0.17-0.23-0.36-0.6-0.36h-1.92c-0.37,0-0.49-0.01-0.49,0.36
	l0,4.2l0,1.86c0,0.57,0.87,0.71,3.28,0.71h6.42c0,0,2.73,0.1,4.77-1.09c1.65-0.98,3.11-3.61,3.02-5.55c-0.13-3.12-0.33-4.8-2.1-5.89
	c-1.56-0.97-4.79-1.43-6.89-1.76c-2.11-0.34-3.87-0.68-3.87-2.52c0-1.85,2.44-2.19,3.54-2.21c0,0,1.43-0.13,2.52,0.28
	c0.45,0.17,0.87,0.31,1.5,1.09c0.31,0.38,0.8,1.6,0.8,1.6c0,0.37,0.3,0.67,0.67,0.67h1.74c0.53,0.06,0.67-0.08,0.67-0.67l-0.01-5.6
	c0-0.39-2.19-0.37-3.28-0.37h-7.09c0,0-2.44,0.02-3.92,1.43c-1.08,1.03-2.19,3.03-2.1,4.96C279.98,43.7,280.32,45.88,283.35,46.81z"
	/>
<path d="M422.47,46.81c1.76,0.54,4.79,1.43,6.89,1.77c2.11,0.33,3.03,1.35,2.69,3.19c-0.33,1.82-2.44,2.19-3.54,2.21
	c0,0-2.69,0.13-3.78-0.28c-0.45-0.17-1.7-1.59-1.93-1.99l-0.44-1.07c0-0.17-0.23-0.36-0.6-0.36h-1.92c-0.37,0-0.5-0.01-0.5,0.36
	l0.01,4.2v1.86c0,0.57,0.87,0.71,3.28,0.71h6.42c0,0,2.74,0.1,4.77-1.09c1.66-0.98,3.11-3.61,3.03-5.55
	c-0.13-3.12-0.34-4.8-2.1-5.89c-1.57-0.97-4.79-1.43-6.9-1.76c-2.1-0.34-3.87-0.68-3.87-2.52c0-1.85,2.44-2.19,3.54-2.21
	c0,0,1.43-0.13,2.53,0.28c0.45,0.17,0.87,0.31,1.5,1.09c0.31,0.38,0.79,1.6,0.79,1.6c0,0.37,0.3,0.67,0.68,0.67h1.74
	c0.53,0.06,0.67-0.08,0.67-0.67l0-5.6c0-0.39-2.19-0.37-3.29-0.37h-7.09c0,0-2.44,0.02-3.92,1.43c-1.09,1.03-2.19,3.03-2.1,4.96
	C419.1,43.7,419.44,45.88,422.47,46.81z"/>
<path d="M333.64,55.58c-0.17-0.25-0.42-0.17-0.92-0.25c-0.51-0.09-0.84-0.33-0.84-0.33l-2.63-1.88c0.36-0.66,0.64-1.36,0.86-1.85
	c0.34-0.76,0.51-3.2,0.51-4.04c0-0.84,0.19-2.31-0.1-2.56c-0.08-0.07-0.42-0.13-0.42-0.13h-3.59c0,0-0.21,0.04-0.33,0.17
	c-0.11,0.1-0.09,0.59-0.09,0.59s-0.04,1.18,0,1.76c0.08,1.1-0.2,2.11-0.57,2.95l-5.32-4.42c2.92-1.1,4.84-3.59,4.8-5.43
	c-0.08-3.61-3.31-5.05-7.91-5.13c-5.13-0.08-8.58,1.91-8.58,5.13c0,0.93,0.25,1.77,0.7,2.51c-0.01,0.03-0.02,0.07-0.02,0.1
	l0.19,0.15c0.34,0.48,0.76,0.92,1.25,1.31c-2.28,1.58-3.66,3.82-3.66,6.2c0,4.47,2.05,7.57,10.72,7.82c3.12,0.09,6.06-0.67,8.3-1.96
	l0.87,0.38c0.36,0.3,0.65,0.65,1.37,0.68l4.94-0.02c0.37,0,0.57-0.11,0.57-0.49l0.01-0.27C333.71,56.56,333.76,55.76,333.64,55.58z
	 M317.07,38.15c2.02,0.08,3.12,1.01,3.12,2.02c0,1.18-2.69,2.27-3.37,2.27c-0.1,0-0.25-0.03-0.43-0.08
	c-0.27-0.16-0.64-0.3-0.93-0.37c-0.84-0.43-1.73-1.11-1.73-1.82C313.73,39.15,315.05,38.06,317.07,38.15z M318.16,54.46
	c-4.79-0.09-5.54-1.75-5.54-4.44c0-1.18,0.58-2.32,1.56-3.21l8.47,6.82C321.77,54.19,319.95,54.49,318.16,54.46z"/>
<path d="M257.77,70.04c0,0-0.19,0-0.27,0.09c-0.09,0.08-0.16,0.31-0.16,0.31"/>
</svg>
